<svg width="18" height="20" viewBox="0 0 18 20" fill="none" xmlns="http://www.w3.org/2000/svg">
<path d="M4 0C3.46957 0 2.96086 0.210714 2.58579 0.585786C2.21071 0.960859 2 1.46957 2 2C2 2.53043 2.21071 3.03914 2.58579 3.41421C2.96086 3.78929 3.46957 4 4 4C4.53043 4 5.03914 3.78929 5.41421 3.41421C5.78929 3.03914 6 2.53043 6 2C6 1.46957 5.78929 0.960859 5.41421 0.585786C5.03914 0.210714 4.53043 0 4 0ZM2 5C0.895 5 0 5.895 0 7V14H1V20H3V14H5V20H7V9V7H11V5H2ZM13 5V7H18V5H13ZM9 9V11H11V9H9ZM13 9V11H18V9H13ZM9 13V15H11V13H9ZM13 13V15H18V13H13ZM9 17V19H11V17H9ZM13 17V19H18V17H13Z" fill="white"/>
</svg>
