<svg width="21" height="21" viewBox="0 0 21 21" fill="none" xmlns="http://www.w3.org/2000/svg">
    <path d="M9 0C7.93913 0 6.92172 0.421427 6.17157 1.17157C5.42143 1.92172 5 2.93913 5 4C5 5.06087 5.42143 6.07828 6.17157 6.82843C6.92172 7.57857 7.93913 8 9 8C10.0609 8 11.0783 7.57857 11.8284 6.82843C12.5786 6.07828 13 5.06087 13 4C13 2.93913 12.5786 1.92172 11.8284 1.17157C11.0783 0.421427 10.0609 0 9 0ZM9 11C5.859 11 0 12.545 0 15.5V17C0 17.5523 0.447715 18 1 18H8.26991C8.7809 18 9.14669 17.5058 9.07422 17H9.08008C9.03308 16.673 9 16.34 9 16C9 14.923 9.2515 13.9071 9.6875 12.9961C9.87067 12.6117 10.086 12.2455 10.332 11.9028C10.5692 11.5724 10.3931 11.0781 9.98779 11.0441C9.63797 11.0147 9.30616 11 9 11ZM15.0645 11C14.9355 11 14.8275 11.0966 14.8125 11.2246L14.6953 12.2363C14.2113 12.4043 13.7745 12.6593 13.3945 12.9883L12.457 12.582C12.339 12.531 12.2027 12.5775 12.1387 12.6895L11.2012 14.3105C11.1372 14.4225 11.1665 14.5646 11.2695 14.6406L12.0762 15.2383C12.0292 15.4863 12 15.74 12 16C12 16.26 12.0282 16.5128 12.0762 16.7598L11.2715 17.3594C11.1685 17.4364 11.1381 17.5785 11.2031 17.6895L12.1387 19.3105C12.2027 19.4225 12.341 19.467 12.459 19.416L13.3945 19.0117C13.7735 19.3397 14.2113 19.5957 14.6953 19.7637L14.8125 20.7754C14.8265 20.9044 14.9355 21 15.0645 21H16.9355C17.0645 21 17.1725 20.9034 17.1875 20.7754L17.3047 19.7637C17.7887 19.5957 18.2255 19.3407 18.6055 19.0117L19.543 19.418C19.661 19.469 19.7973 19.4215 19.8613 19.3105L20.7988 17.6895C20.8628 17.5775 20.8335 17.4354 20.7305 17.3594L19.9238 16.7598C19.9718 16.5128 20 16.26 20 16C20 15.74 19.9718 15.4872 19.9238 15.2402L20.7285 14.6406C20.8315 14.5636 20.8619 14.4215 20.7969 14.3105L19.8613 12.6895C19.7973 12.5775 19.659 12.533 19.541 12.584L18.6055 12.9883C18.2265 12.6603 17.7887 12.4043 17.3047 12.2363L17.1875 11.2246C17.1735 11.0956 17.0645 11 16.9355 11H15.0645ZM16 14.25C16.966 14.25 17.75 15.033 17.75 16C17.75 16.966 16.966 17.75 16 17.75C15.034 17.75 14.25 16.966 14.25 16C14.25 15.033 15.034 14.25 16 14.25Z" fill="white"/>
</svg>
